#!OML:ASF E:/inclinewalkrobotboard/Project1/Captureday1/Session1/subject1.ASF
:FULLY-SPECIFIED
:DEGREES
138
root 0 0 0 -4.327945470119007 -4.683956436137146 -2.0906653231073227
lowerback 8.448321056378358 0.930388557792254 1.3894477680178694
upperback 2.0131186287910734 1.357490686566506 1.1855013122497173
thorax -2.4464726704189603 0.665748052826357 0.4165794350928316
lowerneck -14.712344902304187 -2.4395899555214715 -2.3135373009709017
upperneck 23.73909741724433 -3.3909052951675256 2.16806277900686
head 9.795445126310868 -1.4774769044906906 0.6196938093759603
rclavicle -3.199356277292561E-15 -1.8442436804292952E-15
rhumerus -32.68822180199015 -19.528086514046038 -84.9995270687167
rradius 19.734385093244676
rwrist 15.94251044543875
rhand -19.760510161953246 29.782218047650048
rfingers 7.125019999999997
rthumb 6.597746090787928 -0.36421361024662957
lclavicle -4.435586269878827E-15 -1.8022571070097576E-15
lhumerus -34.15120126093271 6.720851349871264 79.55577973664255
lradius 18.414149668095835
lwrist 0.33911014482692314
lhand -27.802740388139377 28.19961438471524
lfingers 7.125020000000004
lthumb -1.2392669903863789 58.31072129098235
rfemur -18.67915608800256 4.047581554041244 25.141281123999267
rtibia 44.880116296739594
rfoot -5.733842109672282 -7.244200750446289
rtoes 5.0856383404525225
lfemur -1.94013767197107 -5.928373778776496 -22.28314824133696
ltibia 27.214126181853786
lfoot -11.999290116811387 0.23938925507603814
ltoes -2.265320494279859
139
root 0 0 0 -3.635117355960223 -2.640789264363218 0.37388668535014435
lowerback 9.089527527377522 -0.1794169478265898 -1.1119345722064156
upperback 2.233527516315611 -0.4526214198260132 0.898157969364997
thorax -2.6236325808009697 -0.17579129210724043 1.728826270439809
lowerneck -14.478574929859837 -2.0347232827245154 -2.3824589015988904
upperneck 17.578259511445026 -2.5941632495749367 1.8356080063459017
head 7.682930734265157 -1.2249277557456442 0.6836416908624274
rclavicle -2.6624144496049363E-15 -1.479573850654467E-15
rhumerus -34.88246839435273 -20.26081024952575 -86.43794607648859
rradius 16.93155445758555
rwrist 16.52843043430962
rhand -19.520379545981783 29.007722203508322
rfingers 7.125019999999991
rthumb 6.8339397998134555 -1.1113885574961202
lclavicle -3.674061412429448E-15 -1.4553327170551896E-15
lhumerus -33.68950781382637 5.9912396615172065 79.58491999568948
lradius 19.320387392299374
lwrist 1.0732874970383814
lhand -27.999790517320477 28.315906719338088
lfingers 7.125020000000007
lthumb -1.436194783590084 58.431123391324874
rfemur -21.43995144594142 3.7036022099845223 23.91875243917057
rtibia 45.169124450146455
rfoot -5.128442583908089 -7.793197244201057
rtoes 4.4399670188193685
lfemur 2.9639179475782287 -7.06461845938426 -23.511431918847137
ltibia 25.045663022382723
lfoot -14.751605937723385 1.256303284934968
ltoes -3.5861936182984415
140
root 0 0 0 -2.225435761083939 -0.7360836668533801 1.3675577796931244
lowerback 9.554730366740527 -0.9282296108138336 -2.430682298296401
upperback 1.9449631388358033 -1.5970759115358752 1.0053551259348876
thorax -3.1960771983695664 -0.7125515241345759 2.6842736929256867
lowerneck -14.611684979772692 -2.04540764367228 -2.4883838764299626
upperneck 14.686071817242476 -2.3584467026418032 1.3744883018712917
head 6.721823404716307 -1.2290587689953028 0.6118053084264832
rclavicle -7.351836697906654E-16 -2.9108318288125525E-16
rhumerus -35.66570901591188 -23.20193580583436 -86.10331649771672
rradius 14.904115195930274
rwrist 17.204287901320967
rhand -19.42589029170941 27.916419132673802
rfingers 7.125019999999985
rthumb 6.926521896959022 -2.1670814032156045
lclavicle 2.9803172988615703E-16 -9.687400393299199E-17
lhumerus -33.14265516965777 2.9047612913784113 79.12129074477518
lradius 24.883225590547198
lwrist 5.026632717425532
lhand -28.51879269401534 27.93021318498666
lfingers 7.125020000000008
lthumb -1.9559557560207939 58.06251858215454
rfemur -23.487863555934222 3.434227804249922 22.179979030652362
rtibia 43.06667214005249
rfoot -4.966647287773947 -8.27807546134913
rtoes 3.1154403777827833
lfemur 6.784042900106349 -7.253373567729394 -24.57646460782548
ltibia 24.12584603880479
lfoot -16.278665602963933 1.2861813345700974
ltoes -4.733076020779663
141
root 0 0 0 -1.7428489233073041 -0.14607432486313732 1.4560180783748398
lowerback 9.655442195305543 -1.1636641533999694 -2.798881161078044
upperback 1.5261796874500186 -1.9336460058086427 1.1179320232672503
thorax -3.692765672438905 -0.8725297658083362 3.033500140059235
lowerneck -14.97644317389486 -2.1103216672211085 -2.3905195874754788
upperneck 14.320899647402955 -2.3729048387170213 1.0037528810224363
head 6.680338372722683 -1.271024046264762 0.476350365493163
rclavicle 1.4222405091759716E-15 -9.595170346358886E-16
rhumerus -34.96662405386938 -25.679578479560263 -84.70303695412076
rradius 15.156759249362395
rwrist 17.376610398727944
rhand -19.656011638154304 27.174622458017666
rfingers 7.125019999999984
rthumb 6.703865337507017 -2.923524247891507
lclavicle 3.0838035779744725E-15 -4.638013731191838E-16
lhumerus -32.406596274465315 0.013386460203252043 79.13737115973917
lradius 29.69615687661819
lwrist 8.5355401369106
lhand -28.973476015069593 27.61991794879611
lfingers 7.125020000000006
lthumb -2.4082543243926313 57.762516192131145
rfemur -23.480266092030064 3.557898128277804 22.028724066791927
rtibia 41.600583135209476
rfoot -5.454761673702909 -8.43165810509871
rtoes 2.599787507040782
lfemur 7.720160999549397 -7.020805688245731 -24.771814910833637
ltibia 24.4326073037741
lfoot -16.366529240816675 0.9624823753898935
ltoes -5.250760163559185
